<?xml version="1.0" standalone="no"?>
<!DOCTYPE svg PUBLIC "-//W3C//DTD SVG 20010904//EN"
 "http://www.w3.org/TR/2001/REC-SVG-20010904/DTD/svg10.dtd">
<svg version="1.0" xmlns="http://www.w3.org/2000/svg"
 width="1000.000000pt" height="1000.000000pt" viewBox="0 0 1000.000000 1000.000000"
 preserveAspectRatio="xMidYMid meet">
<metadata>
Created by potrace 1.14, written by Peter Selinger 2001-2017
</metadata>
<g transform="translate(0.000000,1000.000000) scale(0.100000,-0.100000)"
fill="#000000" stroke="none">
<path d="M1074 9932 l-21 -3 0 -4929 0 -4930 987 0 986 0 0 980 c-1 539 2 979
6 977 4 -1 66 -81 138 -177 72 -96 140 -186 150 -200 16 -21 383 -511 543
-725 25 -33 132 -176 239 -317 106 -142 240 -321 298 -398 l105 -140 1550 1
c879 0 1574 4 1605 9 30 5 71 12 90 15 64 10 216 54 289 85 262 108 514 322
684 581 76 116 160 319 186 449 17 90 21 111 28 195 9 110 9 2672 -1 2765 -30
295 -136 554 -318 774 l-49 59 28 31 c15 17 30 33 33 36 19 19 132 197 162
255 49 97 95 225 113 315 2 8 6 26 9 40 28 119 30 216 30 1540 0 1162 -3 1408
-19 1491 -31 160 -68 276 -130 399 -189 382 -549 677 -944 775 -96 24 -115 27
-226 41 -55 7 -6504 13 -6551 6z m5896 -2957 l0 -985 -1969 0 c-1566 0 -1970
3 -1973 13 -3 10 -2 1883 1 1940 1 16 102 17 1971 17 l1970 0 0 -985z m-2
-3946 l2 -986 -1967 0 c-1083 0 -1970 4 -1973 8 -4 5 -5 1911 -1 1954 1 7 662
10 1969 10 l1967 0 3 -986z"/>
</g>
</svg>
