<?xml version="1.0" encoding="utf-8"?>
<!-- Generator: Adobe Illustrator 19.0.0, SVG Export Plug-In . SVG Version: 6.00 Build 0)  -->
<svg version="1.1" id="Capa_1" xmlns="http://www.w3.org/2000/svg" xmlns:xlink="http://www.w3.org/1999/xlink" x="0px" y="0px"
	 viewBox="0 0 577.4 131.3" style="enable-background:new 0 0 577.4 131.3;" xml:space="preserve">
<style type="text/css">
	.st0{display:none;fill:#FFFFFF;}
	.st1{fill:#FFFFFF;}
	.st2{display:none;fill:#FEFEFE;}
</style>
<g>
	<path class="st0" d="M595.5,389.3c-206.8,0-413.6,0-620.4,0c0-206.7,0-413.5,0-620.3c206.8,0,413.6,0,620.4,0
		C595.5-24.3,595.5,182.5,595.5,389.3z M169.3,78.7c-3.1,8.8-6.1,17.5-9.2,26.3c13.8,0,27.2,0,40.7,0c1.5,4.4,3.1,8.8,4.6,13.1
		c1.5,4.3,3.1,8.7,4.6,13c3.9,0.4,31.2,0.2,32.7-0.2c-3.3-8.6-6.9-17.1-10.2-25.8c16.7,0,33.2,0,49.8,0c0,8.7,0,17.4,0,26
		c3.1,0.4,24.7,0.3,26.2-0.2c0-8.6,0-17.1,0-25.8c17.5,0,34.9,0,52.4,0c-4.4,8.8-8.6,17.3-13,26c30.7,0,61.2,0,91.9,0
		c0-8.8,0-17.4,0-26c5.7,0,11.2,0,16.8,0c-3.5,8.8-6.9,17.4-10.4,26.1c11.1,0,21.9,0,32.9,0c3.1-8.7,6.1-17.5,9.2-26.2
		c13.6,0,27,0,40.6,0c-3.1-8.8-6.1-17.5-9.2-26.3c-7.5,0-14.7,0-22.2,0c4.8-13.7,9.5-27.1,14.4-41c11,31.5,21.9,62.6,32.8,93.5
		c11,0,21.8,0,32.8,0c-17.5-43.8-35-87.5-52.4-131.1c-8.9,0-17.6,0-26.4,0c-10.5,26.2-21,52.4-31.4,78.6c-20.2,0-40.1,0-60.3,0
		c13.1-26.3,26.1-52.3,39.2-78.5c-30.7,0-61.2,0-91.7,0c0,8.8,0,17.4,0,26.3c15.2,0,30.3,0,45.7,0c-0.3,0.7-0.6,1.2-0.8,1.7
		C391.2,44.4,383,60.7,374.9,77c-0.7,1.4-1.5,1.8-3,1.8c-20.4,0-40.8,0-61.2,0c-0.7,0-1.3,0-2.3,0c3.4-6.8,6.6-13.3,9.9-19.8
		c3.3-6.5,6.5-13,9.8-19.6c3.3-6.6,6.6-13.2,9.9-19.7c3.2-6.5,6.6-12.9,9.7-19.6c-11.1,0-21.8,0-32.7,0
		c-6.5,17.4-13.1,34.7-19.7,52.4c-6.6-17.8-13.1-35.1-19.6-52.3c-11,0-21.8,0-32.9,0C256,26.4,269,52.4,282.1,78.7
		c-20.3,0-40.3,0-60.4,0c-10.5-26.2-21-52.4-31.4-78.6c-8.9,0-17.5,0-26.3,0c-17.5,43.7-34.9,87.3-52.4,131.1c11.1,0,21.9,0,32.8,0
		c10.9-31,21.7-62.1,32.6-93.1c5.1,13.5,9.9,26.9,14.5,40.6C184,78.7,176.8,78.7,169.3,78.7z M0,131.1c8.8,0,17.4,0,26.3,0
		c0-8.5,0-16.9,0-25.9c0.8,1,1.2,1.6,1.7,2.1c5.6,7.5,11.3,15,16.8,22.5c0.7,1,1.5,1.4,2.7,1.4c12.5,0,24.9,0,37.4-0.1
		c2.1,0,4.3-0.3,6.3-0.9c8-2.4,13.6-9.9,13.7-18.2c0.1-10.7-0.1-21.4,0.1-32c0.1-5.3-1.2-10.1-4.7-14.2c-0.1-0.1-0.1-0.3-0.2-0.4
		c3-3.4,4.7-7.4,4.8-12c0.1-11.6,0.1-23.1,0-34.7c0-4.1-1.4-7.8-4-11.1C96.8,2.5,91.4,0,84.7,0C57,0,29.2,0,1.5,0C1,0,0.6,0,0,0
		C0,43.8,0,87.4,0,131.1z"/>
	<path class="st1" d="M169.3,78.7c7.5,0,14.7,0,22.2,0c-4.7-13.7-9.5-27.1-14.5-40.6c-10.9,31-21.7,62-32.6,93.1
		c-10.9,0-21.7,0-32.8,0c17.5-43.8,35-87.5,52.4-131.1c8.8,0,17.4,0,26.3,0c10.5,26.2,21,52.4,31.4,78.6c20.1,0,40,0,60.4,0
		C269,52.4,256,26.4,242.9,0.1c11,0,21.9,0,32.9,0c6.5,17.3,12.9,34.6,19.6,52.3C302,34.8,308.5,17.4,315,0.1c10.8,0,21.6,0,32.7,0
		c-3.1,6.7-6.5,13.1-9.7,19.6c-3.3,6.6-6.6,13.2-9.9,19.7c-3.3,6.5-6.5,13-9.8,19.6c-3.2,6.5-6.5,13-9.9,19.8c1,0,1.7,0,2.3,0
		c20.4,0,40.8,0,61.2,0c1.5,0,2.3-0.4,3-1.8c8.1-16.3,16.3-32.6,24.4-48.9c0.2-0.5,0.5-1,0.8-1.7c-15.3,0-30.5,0-45.7,0
		c0-8.8,0-17.5,0-26.3c30.5,0,60.9,0,91.7,0c-13.1,26.2-26.1,52.2-39.2,78.5c20.2,0,40.1,0,60.3,0c10.5-26.1,20.9-52.3,31.4-78.6
		c8.8,0,17.4,0,26.4,0c17.4,43.6,34.9,87.3,52.4,131.1c-11.1,0-21.8,0-32.8,0c-10.8-31-21.7-62-32.8-93.5
		c-4.9,13.9-9.6,27.4-14.4,41c7.5,0,14.8,0,22.2,0c3.1,8.8,6.1,17.4,9.2,26.3c-13.6,0-27,0-40.6,0c-3.1,8.8-6.1,17.5-9.2,26.2
		c-10.9,0-21.7,0-32.9,0c3.5-8.7,6.9-17.3,10.4-26.1c-5.7,0-11.2,0-16.8,0c0,8.6,0,17.3,0,26c-30.7,0-61.1,0-91.9,0
		c4.3-8.7,8.6-17.2,13-26c-17.6,0-34.9,0-52.4,0c0,8.6,0,17.2,0,25.8c-1.6,0.4-23.1,0.6-26.2,0.2c0-8.6,0-17.2,0-26
		c-16.6,0-33.1,0-49.8,0c3.3,8.7,6.9,17.2,10.2,25.8c-1.4,0.5-28.8,0.7-32.7,0.2c-1.5-4.3-3-8.6-4.6-13c-1.5-4.3-3-8.7-4.6-13.1
		c-13.5,0-26.9,0-40.7,0C163.2,96.2,166.2,87.5,169.3,78.7z"/>
	<path class="st1" d="M0,131.1C0,87.4,0,43.8,0,0c0.6,0,1,0,1.5,0C29.2,0,57,0,84.7,0c6.6,0,12,2.5,16.1,7.7c2.6,3.2,4,7,4,11.1
		c0.1,11.6,0.1,23.1,0,34.7c0,4.6-1.8,8.6-4.8,12c0.1,0.2,0.1,0.3,0.2,0.4c3.4,4.1,4.8,8.8,4.7,14.2c-0.1,10.7,0,21.3-0.1,32
		c-0.1,8.3-5.7,15.8-13.7,18.2c-2,0.6-4.2,0.9-6.3,0.9c-12.5,0.1-24.9,0-37.4,0.1c-1.2,0-2-0.4-2.7-1.4c-5.6-7.5-11.2-15-16.8-22.5
		c-0.4-0.6-0.9-1.1-1.7-2.1c0,8.9,0,17.3,0,25.9C17.4,131.1,8.8,131.1,0,131.1z M26.3,52.4c17.5,0,34.9,0,52.3,0
		c0-8.7,0-17.3,0-25.9c-17.5,0-34.9,0-52.3,0C26.3,35.1,26.3,43.7,26.3,52.4z M26.3,104.8c17.5,0,34.9,0,52.3,0c0-8.7,0-17.3,0-25.9
		c-17.5,0-34.9,0-52.3,0C26.3,87.6,26.3,96.1,26.3,104.8z"/>
	<path class="st2" d="M26.3,52.4c0-8.7,0-17.2,0-25.9c17.4,0,34.8,0,52.3,0c0,8.6,0,17.2,0,25.9C61.1,52.4,43.8,52.4,26.3,52.4z"/>
	<path class="st2" d="M26.3,104.8c0-8.7,0-17.2,0-25.9c17.4,0,34.8,0,52.3,0c0,8.6,0,17.2,0,25.9C61.1,104.8,43.8,104.8,26.3,104.8z
		"/>
</g>
</svg>
