<?xml version="1.0" encoding="utf-8"?>
<svg xmlns="http://www.w3.org/2000/svg" xmlns:xlink="http://www.w3.org/1999/xlink" version="1.1" id="Capa_1" x="0px" y="0px" viewBox="0 0 176.7 176.4" style="enable-background:new 0 0 176.7 176.4;" xml:space="preserve">
<style type="text/css">
	.st0{fill:#e0ff00;}
	.st1{fill:#03ff16;}
	.st2{fill:#00cee5;}
	.st3{fill:#ff00ff;}
</style>
<g>
	<path class="st0" d="M176.4,168.3c-3.1-0.5-5.9-0.5-8.1-1.5c-1.2-0.5-2-3.1-2-4.7c-0.1-24,0.1-48-0.1-72   c-0.3-30.6-13.3-54.6-40.1-69.5c-26.4-14.7-53.6-14-79.2,2.3C21.4,39.1,9,63.2,11.1,93.5c2.9,43,38.8,74.5,81.9,72.3   c3-0.1,6-0.5,8.9-1.1c13.6-2.5,13.6-2.6,28.1,1c-8.3,4.9-16.7,7.6-25.5,9.2c-48.4,8.8-94.1-23-103-71.5C-7.3,56,25.3,9.7,73.4,1.3   c52.1-9.1,101.3,30.4,102.8,83.3c0.8,26.8,0.3,53.6,0.4,80.5C176.6,165.9,176.5,166.7,176.4,168.3z"/>
	<path class="st1" d="M112,145.8c0.5,12.6,2.1,10.7-9.5,13c-46.4,9.2-88.2-27.1-86.2-74.4c1.5-36.1,31.6-66.3,68-68.2   c36.5-2,69.4,24.2,75,59.7c0.6,3.8,1,7.6,1,11.4c0.1,24.3,0.1,48.7,0,73c0,1.5-0.1,2.9-0.2,4.9c-2.9-0.4-5.6-0.4-7.9-1.4   c-1.2-0.5-2.1-3-2.1-4.6c-0.1-23.3-0.1-46.7-0.1-70c0-31.1-21.2-56.3-51.9-61.8c-33-5.9-65.3,17.7-70.7,51.7   c-5.3,33.2,19,65.9,52,69.9c5.4,0.7,11,0.7,16.4,0.1C101.1,148.6,106.4,147,112,145.8z"/>
	<path class="st2" d="M111.9,127.6c0.6,13.3,2.3,11.6-9.6,14.9c-30.5,8.5-62.6-11.6-69-42.8c-6.4-31.4,14.9-62,46.4-66.7   c34.2-5.1,64.3,20.6,64.5,55c0.1,23.2,0,46.3,0,69.5c0,1.5-0.1,2.9-0.3,4.8c-2.1-0.3-3.9-0.9-5.6-0.9c-3.7-0.1-4.6-1.8-4.5-5.4   c0.2-22.7,0.2-45.3,0-68c-0.1-19-11.9-35.7-29.5-42.4c-17.3-6.6-36.7-2-49.4,11.7c-14.7,15.9-16.3,40.2-3.6,57.5   c13,17.8,36.3,24,56.1,14.8C108.8,129,110.1,128.4,111.9,127.6z"/>
	<path class="st3" d="M127.9,159.3c-3.2-0.5-6.2-1-9.9-1.7c0-1.9,0-3.7,0-5.5c0-21,0.1-42,0-63c-0.1-11.7-5.1-21-15.5-26.7   c-10-5.4-20.2-5.1-29.9,1c-14.5,9.1-18.1,28.8-7.9,42.4c10.5,13.9,30.2,16,43.3,4.5c1.2-1.1,2.4-2.2,4.3-4.1   c0,4.8,0.3,8.7-0.2,12.6c-0.2,1.4-1.9,3-3.3,3.8c-19,11.6-44.3,4.8-55.4-14.8c-10.9-19.3-3.6-44.3,15.9-54.7   c26.2-13.9,58.1,3.9,58.9,33.3c0.6,23.5,0.1,47,0.1,70.5C128.3,157.6,128.1,158.2,127.9,159.3z"/>
</g>
</svg>